<svg xmlns="http://www.w3.org/2000/svg" width="38.651" height="38.65" viewBox="0 0 38.651 38.65">
  <path id="Caminho_2145" data-name="Caminho 2145" d="M1485.931,1661.852q-11.7-14.018-30.337-13.167a36.8,36.8,0,0,0,3.028,17.751q2.845-4.5,4.308-5.557-1.57-3.878-1.255-6.04a59.15,59.15,0,0,1,6.9,1.688q-13.972,11.465-13.145,30.655a34.156,34.156,0,0,0,17.835-3.182,36.033,36.033,0,0,1-5.75-4.2,27.444,27.444,0,0,1-5.838,1.234,19.049,19.049,0,0,1,1.622-6.949q11.1,13.729,30.612,13.118.2-11.427-3.351-17.686-2,2.895-4.15,5.563a34.067,34.067,0,0,1,1.275,5.909,23.2,23.2,0,0,1-6.939-1.688q13.978-11.933,13.252-30.653-11.4-.286-17.921,3.42,3.3,2.385,5.728,4.113a16.414,16.414,0,0,1,5.88-1.17A23.221,23.221,0,0,1,1485.931,1661.852Zm-3,6.084a23.915,23.915,0,0,0-8.323-8.248,26.815,26.815,0,0,0-8.258,8.333,31.532,31.532,0,0,0,8.323,8.292A52.344,52.344,0,0,0,1482.926,1667.937Z" transform="translate(-1455.38 -1648.628)" fill="#f8f8f8" fill-rule="evenodd"/>
</svg>
